<svg width="56" height="51" viewBox="0 0 56 51" fill="none" xmlns="http://www.w3.org/2000/svg">
<path d="M0.806641 0.805664H54.8066V49.8057H0.806641V0.805664Z" stroke="url(#paint0_linear_56_9566)" stroke-opacity="0.876812"/>
<g clip-path="url(#clip0_56_9566)">
<path d="M35.3776 14.3057H15.2356C14.1706 14.3057 13.3066 15.1337 13.3066 16.1543V35.457C13.3066 36.4777 14.1706 37.3057 15.2356 37.3057H35.3776C36.4426 37.3057 37.3066 36.4777 37.3066 35.457V16.1543C37.3066 15.1337 36.4426 14.3057 35.3776 14.3057ZM35.3776 35.4657C21.9436 35.4628 15.2266 35.4599 15.2266 35.457C15.2296 22.5828 15.2326 16.1457 15.2356 16.1457C28.6696 16.1485 35.3866 16.1514 35.3866 16.1543C35.3836 29.0285 35.3806 35.4657 35.3776 35.4657ZM16.8646 22.9278H20.4256V33.9045H16.8646V22.9278ZM18.6466 21.427C19.7836 21.427 20.7106 20.5415 20.7106 19.449C20.7106 19.1893 20.6573 18.9321 20.5535 18.6921C20.4498 18.4521 20.2978 18.2341 20.1061 18.0504C19.9144 17.8667 19.6869 17.721 19.4365 17.6216C19.1861 17.5222 18.9177 17.471 18.6466 17.471C18.3756 17.471 18.1072 17.5222 17.8568 17.6216C17.6064 17.721 17.3788 17.8667 17.1872 18.0504C16.9955 18.2341 16.8435 18.4521 16.7398 18.6921C16.636 18.9321 16.5826 19.1893 16.5826 19.449C16.5796 20.5415 17.5036 21.427 18.6466 21.427ZM26.2156 28.4737C26.2156 27.0419 26.5006 25.6562 28.3516 25.6562C30.1756 25.6562 30.2026 27.292 30.2026 28.5657V33.9045H33.7606V27.8843C33.7606 24.9288 33.0946 22.6547 29.4916 22.6547C27.7606 22.6547 26.5996 23.566 26.1226 24.4285H26.0746V22.9278H22.6576V33.9045H26.2156V28.4737Z" fill="#F26122"/>
</g>
<defs>
<linearGradient id="paint0_linear_56_9566" x1="27.8066" y1="0.305664" x2="35.3219" y2="8.02133" gradientUnits="userSpaceOnUse">
<stop stop-color="#F26122"/>
<stop offset="1" stop-color="#F2BB5A" stop-opacity="0"/>
</linearGradient>
<clipPath id="clip0_56_9566">
<rect width="24" height="24" fill="white" transform="translate(13.3066 13.3057)"/>
</clipPath>
</defs>
</svg>
