<svg width="50" height="50" viewBox="0 0 50 50" fill="none" xmlns="http://www.w3.org/2000/svg">
<path d="M0.5 0.5H49.5V49.5H0.5V0.5Z" stroke="url(#paint0_linear_56_9579)" stroke-opacity="0.876812"/>
<path d="M32.4484 27.105L28.4484 25.105C28.2909 25.0265 28.1156 24.991 27.94 25.002C27.7644 25.0129 27.5948 25.07 27.4484 25.1675L25.6121 26.3925C24.7692 25.9291 24.0755 25.2354 23.6121 24.3925L24.8371 22.5562C24.9346 22.4098 24.9917 22.2402 25.0027 22.0646C25.0136 21.8891 24.9781 21.7137 24.8996 21.5562L22.8996 17.5562C22.8167 17.3888 22.6886 17.248 22.5298 17.1497C22.3709 17.0514 22.1877 16.9995 22.0009 17C20.6748 17 19.403 17.5268 18.4654 18.4645C17.5277 19.4021 17.0009 20.6739 17.0009 22C17.0042 24.9164 18.1642 27.7123 20.2264 29.7745C22.2885 31.8367 25.0845 32.9967 28.0009 33C28.6575 33 29.3077 32.8707 29.9143 32.6194C30.5209 32.3681 31.0721 31.9998 31.5364 31.5355C32.0007 31.0712 32.369 30.52 32.6203 29.9134C32.8716 29.3068 33.0009 28.6566 33.0009 28C33.001 27.8142 32.9494 27.6321 32.8518 27.474C32.7542 27.3159 32.6145 27.1881 32.4484 27.105ZM28.0009 31C25.6147 30.9974 23.3271 30.0483 21.6398 28.361C19.9526 26.6738 19.0035 24.3861 19.0009 22C19.0007 21.3064 19.2408 20.6342 19.6805 20.0977C20.1201 19.5612 20.732 19.1936 21.4121 19.0575L22.8471 21.9325L21.6259 23.75C21.5346 23.8869 21.4786 24.0442 21.4626 24.2079C21.4467 24.3717 21.4714 24.5368 21.5346 24.6887C22.2501 26.3892 23.6029 27.742 25.3034 28.4575C25.4557 28.5235 25.6222 28.5505 25.7876 28.5361C25.953 28.5217 26.1122 28.4663 26.2509 28.375L28.0771 27.1575L30.9521 28.5925C30.815 29.2734 30.4458 29.8856 29.9076 30.3247C29.3693 30.7637 28.6955 31.0024 28.0009 31ZM25.0009 12C22.7565 11.9995 20.5502 12.5801 18.5967 13.6853C16.6432 14.7905 15.0092 16.3826 13.8536 18.3066C12.698 20.2307 12.0602 22.4212 12.0024 24.6648C11.9445 26.9085 12.4685 29.1289 13.5234 31.11L12.1046 35.3662C11.9871 35.7186 11.9701 36.0968 12.0554 36.4583C12.1407 36.8199 12.325 37.1505 12.5877 37.4132C12.8504 37.6759 13.181 37.8602 13.5425 37.9455C13.9041 38.0308 14.2822 38.0138 14.6346 37.8962L18.8909 36.4775C20.6343 37.4048 22.5662 37.9228 24.5397 37.992C26.5132 38.0613 28.4765 37.68 30.2807 36.8772C32.0849 36.0743 33.6824 34.871 34.9521 33.3586C36.2218 31.8462 37.1303 30.0644 37.6085 28.1484C38.0868 26.2325 38.1223 24.2328 37.7123 22.301C37.3023 20.3693 36.4577 18.5564 35.2424 16.9999C34.0272 15.4434 32.4733 14.1842 30.6988 13.3178C28.9242 12.4515 26.9756 12.0008 25.0009 12ZM25.0009 36C23.0671 36.0013 21.1673 35.4921 19.4934 34.5237C19.3708 34.4527 19.2346 34.4085 19.0936 34.394C18.9527 34.3796 18.8103 34.3953 18.6759 34.44L14.0009 36L15.5596 31.325C15.6046 31.1907 15.6204 31.0483 15.6062 30.9074C15.592 30.7664 15.548 30.6301 15.4771 30.5075C14.2646 28.4111 13.7778 25.9732 14.0922 23.572C14.4066 21.1707 15.5046 18.9403 17.216 17.2267C18.9274 15.5132 21.1564 14.4123 23.5573 14.0949C25.9581 13.7775 28.3967 14.2612 30.4945 15.4711C32.5924 16.681 34.2324 18.5494 35.1601 20.7864C36.0877 23.0235 36.2512 25.5042 35.6252 27.8436C34.9991 30.1831 33.6185 32.2505 31.6976 33.7253C29.7766 35.2 27.4227 35.9996 25.0009 36Z" fill="#F26122"/>
<defs>
<linearGradient id="paint0_linear_56_9579" x1="25" y1="0" x2="32.5" y2="7" gradientUnits="userSpaceOnUse">
<stop stop-color="#F26122"/>
<stop offset="1" stop-color="#F2BB5A" stop-opacity="0"/>
</linearGradient>
</defs>
</svg>
